<?xml version="1.0" encoding="utf-8"?>
<!-- Generator: Adobe Illustrator 25.3.0, SVG Export Plug-In . SVG Version: 6.00 Build 0)  -->
<svg version="1.1" id="Layer_1" xmlns="http://www.w3.org/2000/svg" xmlns:xlink="http://www.w3.org/1999/xlink" x="0px" y="0px"
	 width="110px" height="110px" viewBox="0 0 110 110" enable-background="new 0 0 110 110" xml:space="preserve">
<g>
	<path fill-rule="evenodd" clip-rule="evenodd" fill="#71C9E2" d="M88.74,22.72c5.04,1.68,9.31,6.35,10.07,11.52
		c1.83,7.66,3.15,14.37,4.33,22.14c1.17,7.77,1.86,14.48,2.25,22.1c0.77,5.19-2.76,9.69-8.25,11.12c-13.32,2.72-27.28,4.52-41.6,5.2
		c-14.32,0.63-28.37,0.01-41.85-1.84c-5.59-1.2-9.46-6.2-9.1-12.37c-0.22-9.06-0.06-17.06,0.5-26.34c0.55-9.29,1.34-17.27,2.57-26.3
		c0.36-6.17,4.28-11.01,9.22-11.97c11.68-1.3,23.65-1.36,35.8-0.15C64.84,17.09,76.89,19.45,88.74,22.72z"/>
	<g>
		<g>
			<defs>
				<rect id="SVGID_1_" x="26.54" y="45.87" width="2.59" height="2.59"/>
			</defs>
			<clipPath id="SVGID_2_">
				<use xlink:href="#SVGID_1_"  overflow="visible"/>
			</clipPath>
			<rect x="21.48" y="40.81" clip-path="url(#SVGID_2_)" fill="#FFFFFF" width="12.72" height="12.72"/>
		</g>
	</g>
	<g>
		<g>
			<defs>
				<rect id="SVGID_3_" x="24.16" y="50.59" width="3.04" height="2.23"/>
			</defs>
			<clipPath id="SVGID_4_">
				<use xlink:href="#SVGID_3_"  overflow="visible"/>
			</clipPath>
			<rect x="19.1" y="45.53" clip-path="url(#SVGID_4_)" fill="#FFFFFF" width="13.17" height="12.36"/>
		</g>
	</g>
	<g>
		<g>
			<defs>
				<rect id="SVGID_5_" x="26.73" y="50.59" width="2.23" height="14.05"/>
			</defs>
			<clipPath id="SVGID_6_">
				<use xlink:href="#SVGID_5_"  overflow="visible"/>
			</clipPath>
			<rect x="21.66" y="45.53" clip-path="url(#SVGID_6_)" fill="#FFFFFF" width="12.36" height="24.18"/>
		</g>
	</g>
	<g>
		<g>
			<defs>
				<path id="SVGID_7_" d="M39.44,52.57c-2.79,0-4.96,2.26-4.96,5.15c0,2.76,2.2,4.96,4.93,4.96c2.76,0,4.99-2.26,4.99-5.07
					C44.4,54.8,42.2,52.57,39.44,52.57z M39.52,64.83c-2.2,0-4.26-1.11-5.3-2.84c0.08,0.22,0.14,0.42,0.17,0.53
					c0.03,0.22,0.05,0.64,0.05,1.14v5.63h-2.23v-18.7h2.23v0.95c0,0.16,0,0.36-0.03,0.58c-0.03,0.47-0.03,0.61-0.2,1.09
					c0.75-1.59,3.01-2.79,5.24-2.79c3.93,0,7.16,3.26,7.16,7.22C46.63,61.54,43.39,64.83,39.52,64.83z"/>
			</defs>
			<clipPath id="SVGID_8_">
				<use xlink:href="#SVGID_7_"  overflow="visible"/>
			</clipPath>
			<rect x="27.15" y="45.36" clip-path="url(#SVGID_8_)" fill="#FFFFFF" width="24.54" height="29"/>
		</g>
	</g>
	<g>
		<g>
			<defs>
				<path id="SVGID_9_" d="M55.22,52.6c-1.03,0.19-1.73,0.47-2.45,1.03c-1.5,1.14-2.06,2.57-2.06,5.15v5.85h-2.23V50.59h2.23v0.97
					c0,0.28-0.03,0.72-0.06,1.09c-0.03,0.39-0.06,0.53-0.2,0.89c0.42-0.78,0.73-1.17,1.31-1.67c0.97-0.84,2.26-1.36,3.68-1.45
					L55.22,52.6"/>
			</defs>
			<clipPath id="SVGID_10_">
				<use xlink:href="#SVGID_9_"  overflow="visible"/>
			</clipPath>
			<rect x="43.42" y="45.36" clip-path="url(#SVGID_10_)" fill="#FFFFFF" width="17.1" height="24.34"/>
		</g>
	</g>
	<g>
		<g>
			<defs>
				<path id="SVGID_11_" d="M62.94,52.57c-2.79,0-4.96,2.2-4.96,5.04c0,2.82,2.2,5.07,4.99,5.07c2.76,0,4.93-2.23,4.93-5.07
					C67.9,54.77,65.73,52.57,62.94,52.57z M62.97,64.83c-4.01,0-7.22-3.23-7.22-7.22c0-3.96,3.23-7.19,7.22-7.19
					c3.96,0,7.16,3.23,7.16,7.22C70.13,61.6,66.93,64.83,62.97,64.83z"/>
			</defs>
			<clipPath id="SVGID_12_">
				<use xlink:href="#SVGID_11_"  overflow="visible"/>
			</clipPath>
			<rect x="50.69" y="45.36" clip-path="url(#SVGID_12_)" fill="#FFFFFF" width="24.51" height="24.54"/>
		</g>
	</g>
	<g>
		<g>
			<defs>
				<path id="SVGID_13_" d="M90.18,64.64v-7.58c0-1.4-0.22-2.31-0.67-3.01c-0.61-0.92-1.7-1.45-2.87-1.47
					c-1.06,0-2.04,0.44-2.7,1.25c-0.64,0.78-0.84,1.62-0.84,3.37v7.44h-2.23V57.2c0-1.5-0.19-2.37-0.64-3.09
					c-0.61-0.97-1.67-1.53-2.9-1.53c-1.09,0-2.09,0.47-2.73,1.31c-0.58,0.75-0.83,1.73-0.83,3.31v7.44h-2.23V50.59h2.23v0.44
					c0,0.67-0.09,1.2-0.28,1.78c0.84-1.56,2.26-2.39,4.13-2.39c2.28,0,4.01,1.17,4.6,3.15c0.5-1.9,2.31-3.15,4.6-3.15
					c1.62,0,3.07,0.58,4.1,1.67c0.59,0.61,1.03,1.4,1.23,2.15c0.19,0.67,0.28,1.42,0.28,2.82v7.58H90.18"/>
			</defs>
			<clipPath id="SVGID_14_">
				<use xlink:href="#SVGID_13_"  overflow="visible"/>
			</clipPath>
			<rect x="66.47" y="45.36" clip-path="url(#SVGID_14_)" fill="#FFFFFF" width="31" height="24.34"/>
		</g>
	</g>
</g>
</svg>
